<?xml version="1.0" encoding="UTF-8" standalone="no"?>
<!DOCTYPE svg PUBLIC "-//W3C//DTD SVG 1.1//EN" "http://www.w3.org/Graphics/SVG/1.1/DTD/svg11.dtd">
<svg width="100%" height="100%" viewBox="0 0 316 143" version="1.1" xmlns="http://www.w3.org/2000/svg" xmlns:xlink="http://www.w3.org/1999/xlink" xml:space="preserve" xmlns:serif="http://www.serif.com/" style="fill-rule:evenodd;clip-rule:evenodd;stroke-linejoin:round;stroke-miterlimit:2;">
    <g id="shadow" transform="matrix(1,0,0,1,0,8)">
        <path d="M33.629,31.745C35.021,24.771 38.034,19.015 42.129,14.422C48.797,6.944 58.552,2.457 69.798,1.275C81.051,0.092 91.545,2.541 99.633,8.524C103.405,11.315 106.701,14.884 109.295,19.287C109.791,18.569 110.314,18.03 110.778,17.604L113.266,15.958L115.781,15.35L116.659,15.109C118.481,14.935 127.375,14.577 128.444,14.608L132.336,15.447L134.991,17.161L135.773,18.054L136.763,16.858L139.706,15.212L143.039,14.706C143.186,14.71 143.333,14.719 143.48,14.731L156.191,15.8L155.75,15.775L157.716,16.042L159.6,16.734L161.259,17.794L162.605,19.121L164.291,22.196L164.756,25.445C164.752,25.583 164.745,25.721 164.734,25.859L164.441,29.48L165.189,29.208C165.288,29.172 165.387,29.138 165.487,29.106C166.69,28.719 167.736,28.569 168.604,28.541L171.248,28.811L173.854,29.871L176.016,31.643C176.016,31.643 176.385,32.191 176.743,32.718C177.106,32.644 177.491,32.583 177.901,32.535C178.011,32.522 178.121,32.512 178.232,32.504L183.643,32.103L184.101,30.913L186.104,28.649L188.624,27.207L191.745,26.598C192.735,26.566 193.843,26.691 194.846,26.875L196.233,27.103L196.067,25.874L196.051,25.75C195.467,20.844 197.015,18.35 198.183,16.905L200.403,14.912L202.802,13.942L203.636,13.575C205.412,13.136 214.158,11.478 215.22,11.351L219.193,11.611L222.07,12.918L222.974,13.686L223.778,12.358L226.449,10.298L229.671,9.309C229.818,9.292 229.964,9.278 230.111,9.269L242.841,8.463L242.401,8.503L244.386,8.479L246.351,8.887L248.147,9.692L249.673,10.808L251.792,13.602L252.154,14.821C254.405,13.204 257.263,12.33 260.454,12.657L260.461,12.658L264.484,13.074L267.22,9.954L267.244,9.927C273.743,2.581 285.862,5.562 288.213,15.065L288.214,15.071L289.207,19.101L292.971,20.583L292.978,20.586C302.554,24.367 303.412,37.517 294.433,42.522L294.416,42.532L291.464,44.168L291.254,47.605C291.114,49.912 290.378,51.956 289.234,53.654C292.814,51.633 297.123,50.866 301.48,51.795C310.846,53.794 316.881,63.034 314.857,72.516C314.265,75.29 313.038,77.769 311.359,79.833L311.413,79.964L311.411,83.756L311.486,83.356L306.506,114.359C306.484,114.493 306.459,114.627 306.431,114.76L304.896,118.207L302.537,120.486L299.677,121.783L296.267,122.039C296.134,122.024 296.002,122.006 295.87,121.985L283.093,119.912C282.962,119.891 282.833,119.867 282.704,119.839L280.159,118.712L277.078,119.463C276.945,119.47 276.811,119.474 276.677,119.474L263.733,119.516C263.601,119.516 263.469,119.514 263.337,119.507L260.11,118.674C259.713,119.055 259.305,119.384 258.894,119.669L256.873,120.737L254.581,121.3L251.963,121.239C251.963,121.239 249.014,120.267 248.953,120.257C247.259,119.411 244.595,118.141 241.868,116.852L241.094,118.614L239.87,120.055L238.31,121.256L236.494,122.11L234.559,122.549L234.994,122.486L222.363,124.675C222.218,124.7 222.073,124.721 221.928,124.738L218.563,124.526L215.487,123.145L213.012,120.642L211.609,117.272C211.592,117.189 211.576,117.105 211.562,117.022L210.902,113.129L209.95,114.032L207.65,115.224L204.997,115.713L203.217,117.691L200.978,119.031L198.569,119.664L196.085,119.622L193.61,118.865L191.34,117.337L190.957,116.854L190.725,117.426L188.979,119.532L186.819,120.958L184.448,121.699L181.958,121.772L179.431,121.118L177.165,119.723L174.482,120.004L171.939,119.509L169.726,118.378L169.242,117.93C169.002,118.183 168.742,118.437 168.461,118.693C159.293,127.031 148.944,130.3 139.395,129.848C129,129.355 119.491,124.495 113.206,116.733C108.378,130.005 97.21,134.88 86.113,134.444C81.856,134.277 77.633,133.298 73.804,131.605L74.215,131.773L71.741,130.353L69.824,128.177L68.729,125.556L68.472,122.887C68.514,121.825 68.729,120.769 68.934,120.067C69.001,119.837 69.079,119.611 69.166,119.388L71.159,114.31L71.058,114.582L72.261,112.362C71.877,112.005 71.504,111.636 71.143,111.253L69.713,111.842C69.586,111.879 69.459,111.913 69.331,111.944L29.417,121.565C29.346,121.582 29.274,121.599 29.203,121.614L25.281,121.672L21.731,120.301L18.967,117.775L17.28,114.419C17.24,114.285 17.204,114.15 17.172,114.013L1.279,47.141C1.26,47.062 1.242,46.982 1.226,46.902L1.162,43.176L2.408,39.754L4.849,36.942L8.287,35.163C8.409,35.127 8.532,35.094 8.656,35.064L26.55,30.722C26.625,30.704 26.7,30.687 26.776,30.671L30.698,30.613L33.629,31.745Z" style="fill:rgb(144,193,239);"/>
    </g>
    <path id="stroke" d="M33.629,31.745C35.021,24.771 38.034,19.015 42.129,14.422C48.797,6.944 58.552,2.457 69.798,1.275C81.051,0.092 91.545,2.541 99.633,8.524C103.405,11.315 106.701,14.884 109.295,19.287C109.791,18.569 110.314,18.03 110.778,17.604L113.266,15.958L115.781,15.35L116.659,15.109C118.481,14.935 127.375,14.577 128.444,14.608L132.336,15.447L134.991,17.161L135.773,18.054L136.763,16.858L139.706,15.212L143.039,14.706C143.186,14.71 143.333,14.719 143.48,14.731L156.191,15.8L155.75,15.775L157.716,16.042L159.6,16.734L161.259,17.794L162.605,19.121L164.291,22.196L164.756,25.445C164.752,25.583 164.745,25.721 164.734,25.859L164.441,29.48L165.189,29.208C165.288,29.172 165.387,29.138 165.487,29.106C166.69,28.719 167.736,28.569 168.604,28.541L171.248,28.811L173.854,29.871L176.016,31.643C176.016,31.643 176.385,32.191 176.743,32.718C177.106,32.644 177.491,32.583 177.901,32.535C178.011,32.522 178.121,32.512 178.232,32.504L183.643,32.103L184.101,30.913L186.104,28.649L188.624,27.207L191.745,26.598C192.735,26.566 193.843,26.691 194.846,26.875L196.233,27.103L196.067,25.874L196.051,25.75C195.467,20.844 197.015,18.35 198.183,16.905L200.403,14.912L202.802,13.942L203.636,13.575C205.412,13.136 214.158,11.478 215.22,11.351L219.193,11.611L222.07,12.918L222.974,13.686L223.778,12.358L226.449,10.298L229.671,9.309C229.818,9.292 229.964,9.278 230.111,9.269L242.841,8.463L242.401,8.503L244.386,8.479L246.351,8.887L248.147,9.692L249.673,10.808L251.792,13.602L252.154,14.821C254.405,13.204 257.263,12.33 260.454,12.657L260.461,12.658L264.484,13.074L267.22,9.954L267.244,9.927C273.743,2.581 285.862,5.562 288.213,15.065L288.214,15.071L289.207,19.101L292.971,20.583L292.978,20.586C302.554,24.367 303.412,37.517 294.433,42.522L294.416,42.532L291.464,44.168L291.254,47.605C291.114,49.912 290.378,51.956 289.234,53.654C292.814,51.633 297.123,50.866 301.48,51.795C310.846,53.794 316.881,63.034 314.857,72.516C314.265,75.29 313.038,77.769 311.359,79.833L311.413,79.964L311.411,83.756L311.486,83.356L306.506,114.359C306.484,114.493 306.459,114.627 306.431,114.76L304.896,118.207L302.537,120.486L299.677,121.783L296.267,122.039C296.134,122.024 296.002,122.006 295.87,121.985L283.093,119.912C282.962,119.891 282.833,119.867 282.704,119.839L280.159,118.712L277.078,119.463C276.945,119.47 276.811,119.474 276.677,119.474L263.733,119.516C263.601,119.516 263.469,119.514 263.337,119.507L260.11,118.674C259.713,119.055 259.305,119.384 258.894,119.669L256.873,120.737L254.581,121.3L251.963,121.239C251.963,121.239 249.014,120.267 248.953,120.257C247.259,119.411 244.595,118.141 241.868,116.852L241.094,118.614L239.87,120.055L238.31,121.256L236.494,122.11L234.559,122.549L234.994,122.486L222.363,124.675C222.218,124.7 222.073,124.721 221.928,124.738L218.563,124.526L215.487,123.145L213.012,120.642L211.609,117.272C211.592,117.189 211.576,117.105 211.562,117.022L210.902,113.129L209.95,114.032L207.65,115.224L204.997,115.713L203.217,117.691L200.978,119.031L198.569,119.664L196.085,119.622L193.61,118.865L191.34,117.337L190.957,116.854L190.725,117.426L188.979,119.532L186.819,120.958L184.448,121.699L181.958,121.772L179.431,121.118L177.165,119.723L174.482,120.004L171.939,119.509L169.726,118.378L169.242,117.93C169.002,118.183 168.742,118.437 168.461,118.693C159.293,127.031 148.944,130.3 139.395,129.848C129,129.355 119.491,124.495 113.206,116.733C108.378,130.005 97.21,134.88 86.113,134.444C81.856,134.277 77.633,133.298 73.804,131.605L74.215,131.773L71.741,130.353L69.824,128.177L68.729,125.556L68.472,122.887C68.514,121.825 68.729,120.769 68.934,120.067C69.001,119.837 69.079,119.611 69.166,119.388L71.159,114.31L71.058,114.582L72.261,112.362C71.877,112.005 71.504,111.636 71.143,111.253L69.713,111.842C69.586,111.879 69.459,111.913 69.331,111.944L29.417,121.565C29.346,121.582 29.274,121.599 29.203,121.614L25.281,121.672L21.731,120.301L18.967,117.775L17.28,114.419C17.24,114.285 17.204,114.15 17.172,114.013L1.279,47.141C1.26,47.062 1.242,46.982 1.226,46.902L1.162,43.176L2.408,39.754L4.849,36.942L8.287,35.163C8.409,35.127 8.532,35.094 8.656,35.064L26.55,30.722C26.625,30.704 26.7,30.687 26.776,30.671L30.698,30.613L33.629,31.745Z" style="fill:white;"/>
    <g id="content">
        <g transform="matrix(8.574452,-2.519999,2.519999,8.574452,-2037.935647,-1087.286871)">
            <path d="M188.429,194.332C188.557,194.332 188.655,194.224 188.665,194.106L188.783,192.117C188.783,191.989 188.685,191.871 188.547,191.861L186.253,191.743L186.538,186.307C186.538,186.17 186.44,186.061 186.312,186.051L184.274,185.953L184.254,185.953C184.126,185.953 184.027,186.051 184.018,186.17L183.614,193.85C183.614,193.988 183.712,194.096 183.84,194.106L185.889,194.204L185.928,194.204L188.409,194.332L188.429,194.332Z" style="fill:rgb(155,204,250);fill-rule:nonzero;"/>
        </g>
        <g transform="matrix(3.90667,0.153348,-0.153348,3.90667,-606.830383,-676.872612)">
            <path d="M182.691,197.398C182.677,197.455 182.663,197.541 182.663,197.627C182.663,197.741 182.691,197.856 182.82,197.899C183.579,198.2 184.41,198.357 185.241,198.357C187.475,198.357 189.667,197.169 190.254,194.132C190.669,191.983 190.684,189.377 190.712,186.856C190.712,186.641 190.569,186.455 190.34,186.44C190.011,186.426 187.661,186.268 187.661,186.268L187.59,186.268C187.461,186.268 187.332,186.297 187.289,186.455C186.73,186.211 186.072,186.082 185.384,186.082C182.362,186.082 181.331,188.188 181.331,189.921C181.331,192.585 183.321,194.347 185.513,194.347C185.971,194.347 186.458,194.261 186.902,194.118C186.559,195.264 185.857,195.951 184.654,195.951C184.338,195.951 183.995,195.908 183.608,195.808C183.579,195.808 183.551,195.793 183.522,195.793C183.364,195.793 183.207,195.894 183.15,196.08L182.691,197.398ZM187.174,191.496C186.945,191.683 186.487,191.84 186.143,191.84C184.883,191.84 184.654,190.666 184.654,190.107C184.654,189.305 185.155,188.574 186.057,188.574C186.673,188.574 187.232,188.933 187.289,189.606C187.289,190.25 187.275,190.881 187.246,191.453L187.174,191.496Z" style="fill:rgb(155,204,250);fill-rule:nonzero;"/>
        </g>
        <g transform="matrix(3.440201,0.1631,-0.1631,3.440201,-471.435037,-579.252584)">
            <path d="M192.298,188.564C192.223,188.415 192.019,188.304 191.833,188.304C191.74,188.304 191.629,188.341 191.554,188.415C190.384,189.66 188.915,190.236 187.615,190.236C185.664,190.236 184.01,188.973 184.01,186.78C184.01,184.513 185.366,183.063 187.708,183.063C188.767,183.063 189.807,183.379 190.384,183.751C190.439,183.788 190.514,183.807 190.588,183.807C190.792,183.807 190.978,183.639 191.034,183.491L192.075,180.555C192.093,180.499 192.093,180.462 192.093,180.406C192.093,180.22 192,180.016 191.87,179.923C190.737,179.18 189.176,178.789 187.522,178.789C183.118,178.789 178.899,181.317 178.899,186.947C178.899,191.667 182.653,194.938 186.909,194.938C189.138,194.938 191.498,194.027 193.543,191.983C193.747,191.779 193.821,191.611 193.821,191.444C193.821,191.314 193.766,191.184 193.691,191.054L192.298,188.564Z" style="fill:rgb(155,204,250);fill-rule:nonzero;"/>
        </g>
        <g transform="matrix(3.882279,-0.462056,0.462056,3.882279,-583.6723,-614.436698)">
            <path d="M190.504,194.433C190.684,194.433 190.847,194.302 190.864,194.105L191.306,185.593C191.306,185.397 191.175,185.233 190.978,185.233L187.721,185.053C187.541,185.053 187.377,185.184 187.361,185.38L187.066,191.012C186.657,191.208 186.264,191.323 185.937,191.323C185.249,191.323 184.758,190.831 184.692,189.424C184.594,187.476 184.561,186.592 184.463,185.495C184.447,185.299 184.316,185.135 183.989,185.135C183.71,185.135 181.173,185.315 181.157,185.348C180.96,185.364 180.731,185.495 180.731,186.166C180.747,187.214 180.78,189.244 180.829,190.308C180.977,193.352 182.744,194.629 185.02,194.629C185.74,194.629 186.509,194.498 187.295,194.253L190.504,194.433Z" style="fill:rgb(251,181,185);fill-rule:nonzero;"/>
        </g>
        <g transform="matrix(3.907646,-0.126024,0.126024,3.907646,-570.210721,-670.688963)">
            <path d="M188.92,194.246C189.731,194.206 190.503,192.809 191.46,187.582C191.474,187.516 191.487,187.436 191.487,187.369C191.487,187.183 191.407,187.023 191.021,186.957L189.412,186.638C189.292,186.611 189.159,186.585 189.04,186.585C188.867,186.585 188.734,186.651 188.68,186.89C188.082,189.777 188.055,189.87 188.015,189.87C187.989,189.87 187.962,189.817 187.949,189.777L187.603,188.181C187.523,187.981 187.404,187.915 187.217,187.915L187.151,187.915L185.621,187.981C185.302,188.008 185.156,188.087 185.129,188.38C185.116,188.5 185.036,189.457 184.983,189.91C184.97,189.989 184.93,190.029 184.903,190.029C184.877,190.029 184.85,190.016 184.823,189.963L183.467,187.103C183.414,186.984 183.294,186.89 183.108,186.89C183.041,186.89 182.961,186.904 182.868,186.93L180.926,187.569C180.66,187.662 180.581,187.782 180.581,187.901C180.581,188.008 180.634,188.114 180.674,188.194L183.387,194.152C183.507,194.418 183.746,194.498 183.985,194.498L184.052,194.498L185.369,194.432C185.595,194.418 185.808,194.259 185.847,194.099C185.954,193.753 186.247,192.45 186.38,191.851C186.393,191.798 186.406,191.718 186.433,191.718C186.446,191.718 186.473,191.745 186.513,191.851C186.725,192.437 187.284,193.913 187.364,194.073C187.47,194.246 187.603,194.299 187.816,194.299L187.909,194.299L188.92,194.246Z" style="fill:rgb(251,181,185);fill-rule:nonzero;"/>
        </g>
        <g transform="matrix(3.908072,0.112049,-0.112049,3.908072,-570.081556,-721.531517)">
            <path d="M190.504,194.433C190.684,194.433 190.847,194.302 190.864,194.105L191.306,185.593C191.306,185.397 191.175,185.233 190.978,185.233L187.721,185.053C187.541,185.053 187.377,185.184 187.361,185.38L187.066,191.012C186.657,191.208 186.264,191.323 185.937,191.323C185.249,191.323 184.758,190.831 184.692,189.424C184.594,187.476 184.561,186.592 184.463,185.495C184.447,185.299 184.316,185.135 183.989,185.135C183.71,185.135 181.173,185.315 181.157,185.348C180.96,185.364 180.731,185.495 180.731,186.166C180.747,187.214 180.78,189.244 180.829,190.308C180.977,193.352 182.744,194.629 185.02,194.629C185.74,194.629 186.509,194.498 187.295,194.253L190.504,194.433Z" style="fill:rgb(251,181,185);fill-rule:nonzero;"/>
        </g>
        <g transform="matrix(3.88313,-0.45484,0.45484,3.88313,-573.742481,-555.935786)">
            <path d="M192.01,192.468C192.091,192.337 192.124,192.239 192.124,192.141C192.124,191.535 189.734,189.784 188.588,189.424C189.571,188.883 190.504,188.376 190.913,188.18C191.109,188.081 191.208,187.934 191.208,187.77C191.208,187.672 191.175,187.574 191.109,187.476L189.751,185.266C189.62,185.053 189.472,184.987 189.341,184.987C188.621,184.987 185.806,187.083 185.134,187.607L184.774,180.65C184.758,180.469 184.627,180.322 184.447,180.322L184.414,180.322L181.14,180.486C180.977,180.502 180.829,180.65 180.829,180.813L180.829,180.846L181.517,194.22C181.533,194.416 181.697,194.547 181.877,194.547L185.151,194.367C185.347,194.367 185.478,194.204 185.478,194.007L185.331,191.208L185.429,191.159C185.756,190.995 186.509,190.586 187.344,190.111L186.133,191.568C186.051,191.666 186.018,191.748 186.018,191.83C186.018,191.977 186.117,192.108 186.215,192.174C187.05,192.698 189.096,193.958 189.996,194.547C190.094,194.613 190.193,194.646 190.274,194.646C190.438,194.646 190.569,194.547 190.7,194.367L192.01,192.468Z" style="fill:rgb(245,190,129);fill-rule:nonzero;"/>
        </g>
        <g transform="matrix(3.9055,0.180688,-0.180688,3.9055,-422.968158,-681.684194)">
            <path d="M188.13,194.384C188.294,194.367 188.441,194.22 188.441,194.056L188.441,194.024L188.032,186.035C188.032,185.871 187.884,185.724 187.721,185.724L187.688,185.724L184.414,185.888C184.218,185.904 184.087,186.052 184.087,186.248L184.496,194.22C184.512,194.4 184.643,194.547 184.823,194.547L184.856,194.547L188.13,194.384ZM188.294,183.04C188.294,181.697 187.213,180.617 185.887,180.617C184.545,180.617 183.465,181.697 183.465,183.04C183.465,184.365 184.545,185.446 185.887,185.446C187.213,185.446 188.294,184.365 188.294,183.04Z" style="fill:rgb(245,190,129);fill-rule:nonzero;"/>
        </g>
        <g transform="matrix(3.823568,0.816033,-0.816033,3.823568,-263.553982,-782.671677)">
            <path d="M188.13,194.384C188.294,194.367 188.441,194.22 188.441,194.056L188.441,194.024L188.032,186.035C188.032,185.871 187.884,185.724 187.721,185.724L187.688,185.724L184.414,185.888C184.218,185.904 184.087,186.052 184.087,186.248L184.496,194.22C184.512,194.4 184.643,194.547 184.823,194.547L184.856,194.547L188.13,194.384ZM188.294,183.04C188.294,181.697 187.213,180.617 185.887,180.617C184.545,180.617 183.465,181.697 183.465,183.04C183.465,184.365 184.545,185.446 185.887,185.446C187.213,185.446 188.294,184.365 188.294,183.04Z" style="fill:rgb(245,190,129);fill-rule:nonzero;"/>
        </g>
        <g transform="matrix(1.335881,0.325653,-0.325653,1.335881,256.973716,4.715468)">
            <g id="star_flat">
                <path d="M18.699,4.627L20.947,8.936C21.288,9.576 21.91,10.026 22.633,10.126L27.379,10.776C29.918,11.126 30.901,14.255 29.024,15.995L25.773,18.994C25.211,19.514 24.951,20.284 25.091,21.033L25.884,25.432C26.325,27.882 23.776,29.791 21.539,28.672L17.003,26.422C16.371,26.112 15.629,26.112 14.997,26.422L10.461,28.672C8.223,29.782 5.675,27.882 6.116,25.432L6.909,21.033C7.049,20.284 6.789,19.514 6.227,18.994L2.976,15.995C1.099,14.265 2.083,11.126 4.621,10.776L9.367,10.126C10.09,10.026 10.722,9.586 11.053,8.936L13.301,4.627C14.445,2.458 17.565,2.458 18.699,4.627Z" style="fill:rgb(255,216,63);fill-rule:nonzero;"/>
            </g>
        </g>
        <g id="ribbon_flat_pink" transform="matrix(0.989776,-0.142629,0.142629,0.989776,-88.777433,87.87367)">
            <g transform="matrix(1.500536,0,0,1.500536,248.747402,19.435946)">
                <path d="M15.995,9.772L7.46,5.413C4.96,4.143 2,5.953 2,8.753L2,16.733C2,19.533 4.96,21.353 7.46,20.073L8.149,19.721L5.31,27.084C5.08,27.671 5.69,28.237 6.26,27.979L8.52,26.965C8.88,26.806 9.3,26.965 9.46,27.323L10.45,29.579C10.7,30.155 11.53,30.135 11.76,29.549L15.99,18.571L20.22,29.549C20.45,30.135 21.28,30.155 21.53,29.579L22.52,27.323C22.68,26.965 23.1,26.806 23.46,26.965L25.72,27.979C26.29,28.237 26.9,27.671 26.67,27.084L23.828,19.715L24.53,20.073C27.03,21.353 29.99,19.533 29.99,16.733L29.99,8.753C29.99,5.953 27.03,4.143 24.53,5.413L15.995,9.772Z" style="fill:rgb(241,154,164);fill-rule:nonzero;"/>
            </g>
            <g transform="matrix(1.500536,0,0,1.500536,248.747402,19.435946)">
                <path d="M14.254,6L17.746,6C18.993,6 20,6.998 20,8.21L20,16.581L24.54,14.263C26.9,13.063 29.68,14.623 29.97,17.173C29.69,19.723 26.91,21.293 24.54,20.083L19.815,17.671C19.468,18.454 18.674,19 17.746,19L14.254,19C13.325,19 12.529,18.452 12.183,17.667L7.45,20.083C5.09,21.293 2.3,19.723 2.02,17.173C2.3,14.623 5.08,13.053 7.45,14.263L12,16.586L12,8.21C12,6.987 13.007,6 14.254,6Z" style="fill:rgb(222,116,135);fill-rule:nonzero;"/>
            </g>
        </g>
        <g id="cookie_flat" transform="matrix(2.36199,-0.248255,0.248255,2.36199,-156.096409,144.509479)">
            <g transform="matrix(1,0,0,1,84.896438,-48.668327)">
                <path d="M2,16C2,25.29 8.27,30 16,30C23.73,30 30,25.26 30,16C30,6.57 23.73,2 16,2C8.27,2 2,6.43 2,16Z" style="fill:rgb(224,179,142);fill-rule:nonzero;"/>
            </g>
            <g transform="matrix(1,0,0,1,84.896438,-48.668327)">
                <path d="M19.89,8.32L20.51,8.36C21.08,8.4 21.56,7.92 21.52,7.35L21.48,6.74C21.47,6.5 21.39,6.25 21.26,6.03C20.87,5.41 20.08,5.16 19.41,5.44C18.61,5.78 18.27,6.72 18.65,7.49C18.88,7.99 19.37,8.28 19.89,8.32Z" style="fill:rgb(109,69,52);fill-rule:nonzero;"/>
            </g>
            <g transform="matrix(1,0,0,1,84.896438,-48.668327)">
                <path d="M26.92,14.61L26.96,13.99C27,13.42 26.52,12.94 25.95,12.98L25.34,13.02C25.1,13.03 24.85,13.11 24.63,13.24C24.01,13.63 23.76,14.42 24.04,15.09C24.38,15.89 25.32,16.23 26.09,15.85C26.59,15.62 26.88,15.13 26.92,14.61Z" style="fill:rgb(109,69,52);fill-rule:nonzero;"/>
            </g>
            <g transform="matrix(1,0,0,1,84.896438,-48.668327)">
                <path d="M10.62,24.52L10.67,23.75C10.71,23.11 11.08,22.51 11.7,22.2C12.65,21.72 13.82,22.14 14.24,23.14C14.59,23.98 14.28,24.96 13.51,25.44C13.23,25.61 12.93,25.7 12.63,25.72L11.87,25.77C11.16,25.82 10.57,25.23 10.62,24.52Z" style="fill:rgb(109,69,52);fill-rule:nonzero;"/>
            </g>
            <g transform="matrix(1,0,0,1,84.896438,-48.668327)">
                <path d="M20.4,15.19L20.43,14.73C20.53,13.22 19.28,11.97 17.76,12.06L17.31,12.09C16.86,12.11 16.41,12.24 15.99,12.49C14.75,13.22 14.22,14.78 14.77,16.11C15.42,17.7 17.27,18.37 18.78,17.62C19.76,17.15 20.34,16.2 20.4,15.19Z" style="fill:rgb(109,69,52);fill-rule:nonzero;"/>
            </g>
            <g transform="matrix(1,0,0,1,84.896438,-48.668327)">
                <path d="M7.65,9L7.68,9.42C7.74,10.33 8.27,11.19 9.15,11.63C10.52,12.31 12.2,11.7 12.79,10.26C13.28,9.05 12.81,7.63 11.68,6.97C11.3,6.75 10.89,6.63 10.48,6.61L10.07,6.58C8.7,6.49 7.57,7.63 7.65,9Z" style="fill:rgb(109,69,52);fill-rule:nonzero;"/>
            </g>
            <g transform="matrix(1,0,0,1,84.896438,-48.668327)">
                <path d="M24.26,22.82L24.28,23.18C24.36,24.35 23.38,25.33 22.21,25.25L21.86,25.23C21.51,25.21 21.16,25.11 20.83,24.92C19.86,24.35 19.46,23.14 19.88,22.11C20.39,20.88 21.82,20.35 23,20.94C23.76,21.3 24.21,22.03 24.26,22.82Z" style="fill:rgb(109,69,52);fill-rule:nonzero;"/>
            </g>
            <g transform="matrix(1,0,0,1,84.896438,-48.668327)">
                <path d="M5.87,16.92L5.91,17.54C5.94,18.06 6.24,18.55 6.74,18.78C7.51,19.16 8.45,18.82 8.79,18.02C9.07,17.35 8.82,16.56 8.2,16.17C7.98,16.04 7.73,15.96 7.49,15.95L6.88,15.91C6.31,15.87 5.83,16.35 5.87,16.92Z" style="fill:rgb(109,69,52);fill-rule:nonzero;"/>
            </g>
        </g>
    </g>
</svg>
