<?xml version="1.0" encoding="UTF-8" standalone="no"?>
<!DOCTYPE svg PUBLIC "-//W3C//DTD SVG 1.1//EN" "http://www.w3.org/Graphics/SVG/1.1/DTD/svg11.dtd">
<svg width="100%" height="100%" viewBox="0 0 32 32" version="1.1" xmlns="http://www.w3.org/2000/svg" xmlns:xlink="http://www.w3.org/1999/xlink" xml:space="preserve" xmlns:serif="http://www.serif.com/" style="fill-rule:evenodd;clip-rule:evenodd;stroke-linejoin:round;stroke-miterlimit:2;">
    <g id="cookie_flat" transform="matrix(1.142857,0,0,1.142857,-99.310215,53.33523)">
        <g transform="matrix(1,0,0,1,84.896438,-48.668327)">
            <path d="M2,16C2,25.29 8.27,30 16,30C23.73,30 30,25.26 30,16C30,6.57 23.73,2 16,2C8.27,2 2,6.43 2,16Z" style="fill:rgb(224,179,142);fill-rule:nonzero;"/>
        </g>
        <g transform="matrix(1,0,0,1,84.896438,-48.668327)">
            <path d="M19.89,8.32L20.51,8.36C21.08,8.4 21.56,7.92 21.52,7.35L21.48,6.74C21.47,6.5 21.39,6.25 21.26,6.03C20.87,5.41 20.08,5.16 19.41,5.44C18.61,5.78 18.27,6.72 18.65,7.49C18.88,7.99 19.37,8.28 19.89,8.32Z" style="fill:rgb(109,69,52);fill-rule:nonzero;"/>
        </g>
        <g transform="matrix(1,0,0,1,84.896438,-48.668327)">
            <path d="M26.92,14.61L26.96,13.99C27,13.42 26.52,12.94 25.95,12.98L25.34,13.02C25.1,13.03 24.85,13.11 24.63,13.24C24.01,13.63 23.76,14.42 24.04,15.09C24.38,15.89 25.32,16.23 26.09,15.85C26.59,15.62 26.88,15.13 26.92,14.61Z" style="fill:rgb(109,69,52);fill-rule:nonzero;"/>
        </g>
        <g transform="matrix(1,0,0,1,84.896438,-48.668327)">
            <path d="M10.62,24.52L10.67,23.75C10.71,23.11 11.08,22.51 11.7,22.2C12.65,21.72 13.82,22.14 14.24,23.14C14.59,23.98 14.28,24.96 13.51,25.44C13.23,25.61 12.93,25.7 12.63,25.72L11.87,25.77C11.16,25.82 10.57,25.23 10.62,24.52Z" style="fill:rgb(109,69,52);fill-rule:nonzero;"/>
        </g>
        <g transform="matrix(1,0,0,1,84.896438,-48.668327)">
            <path d="M20.4,15.19L20.43,14.73C20.53,13.22 19.28,11.97 17.76,12.06L17.31,12.09C16.86,12.11 16.41,12.24 15.99,12.49C14.75,13.22 14.22,14.78 14.77,16.11C15.42,17.7 17.27,18.37 18.78,17.62C19.76,17.15 20.34,16.2 20.4,15.19Z" style="fill:rgb(109,69,52);fill-rule:nonzero;"/>
        </g>
        <g transform="matrix(1,0,0,1,84.896438,-48.668327)">
            <path d="M7.65,9L7.68,9.42C7.74,10.33 8.27,11.19 9.15,11.63C10.52,12.31 12.2,11.7 12.79,10.26C13.28,9.05 12.81,7.63 11.68,6.97C11.3,6.75 10.89,6.63 10.48,6.61L10.07,6.58C8.7,6.49 7.57,7.63 7.65,9Z" style="fill:rgb(109,69,52);fill-rule:nonzero;"/>
        </g>
        <g transform="matrix(1,0,0,1,84.896438,-48.668327)">
            <path d="M24.26,22.82L24.28,23.18C24.36,24.35 23.38,25.33 22.21,25.25L21.86,25.23C21.51,25.21 21.16,25.11 20.83,24.92C19.86,24.35 19.46,23.14 19.88,22.11C20.39,20.88 21.82,20.35 23,20.94C23.76,21.3 24.21,22.03 24.26,22.82Z" style="fill:rgb(109,69,52);fill-rule:nonzero;"/>
        </g>
        <g transform="matrix(1,0,0,1,84.896438,-48.668327)">
            <path d="M5.87,16.92L5.91,17.54C5.94,18.06 6.24,18.55 6.74,18.78C7.51,19.16 8.45,18.82 8.79,18.02C9.07,17.35 8.82,16.56 8.2,16.17C7.98,16.04 7.73,15.96 7.49,15.95L6.88,15.91C6.31,15.87 5.83,16.35 5.87,16.92Z" style="fill:rgb(109,69,52);fill-rule:nonzero;"/>
        </g>
    </g>
</svg>
